<?xml version="1.0" encoding="UTF-8"?>
<!DOCTYPE svg PUBLIC "-//W3C//DTD SVG 1.1//EN" "http://www.w3.org/Graphics/SVG/1.1/DTD/svg11.dtd">
<svg xmlns="http://www.w3.org/2000/svg" version="1.1" width="172px" height="293px" style="shape-rendering:geometricPrecision; text-rendering:geometricPrecision; image-rendering:optimizeQuality; fill-rule:evenodd; clip-rule:evenodd" xmlns:xlink="http://www.w3.org/1999/xlink">
<g><path style="opacity:1" fill="#f8f8f8" d="M -0.5,-0.5 C 56.8333,-0.5 114.167,-0.5 171.5,-0.5C 171.5,97.1667 171.5,194.833 171.5,292.5C 114.167,292.5 56.8333,292.5 -0.5,292.5C -0.5,194.833 -0.5,97.1667 -0.5,-0.5 Z"/></g>
<g><path style="opacity:1" fill="#a3a7a6" d="M 57.5,10.5 C 54.3563,11.1721 51.3563,12.1721 48.5,13.5C 50.513,11.5026 52.8463,9.83597 55.5,8.5C 56.5223,8.85549 57.189,9.52216 57.5,10.5 Z"/></g>
<g><path style="opacity:1" fill="#9ba0a0" d="M 48.5,13.5 C 47.7904,15.7463 47.2904,18.0796 47,20.5C 46.237,17.9365 45.737,17.9365 45.5,20.5C 45.5427,21.4164 45.8761,22.0831 46.5,22.5C 46.6107,23.1174 46.944,23.6174 47.5,24C 46.244,24.4169 45.5774,25.2502 45.5,26.5C 43.9724,27.8021 42.9724,29.4687 42.5,31.5C 41.5933,29.3432 40.9267,27.0098 40.5,24.5C 41.6879,25.6843 42.8545,25.6843 44,24.5C 43.8724,21.5144 43.8724,18.5144 44,15.5C 45.3297,14.4178 46.8297,13.7512 48.5,13.5 Z"/></g>
<g><path style="opacity:1" fill="#212425" d="M 46.5,22.5 C 48.9725,23.7487 49.1391,25.4153 47,27.5C 46.6174,26.944 46.1174,26.6107 45.5,26.5C 45.5774,25.2502 46.244,24.4169 47.5,24C 46.944,23.6174 46.6107,23.1174 46.5,22.5 Z"/></g>
<g><path style="opacity:1" fill="#e4eaea" d="M 57.5,10.5 C 60.4391,11.5335 63.1058,13.0335 65.5,15C 67.8527,20.9508 69.186,27.1175 69.5,33.5C 70.6688,38.8328 71.5021,44.1662 72,49.5C 71.6667,49.1667 71.3333,48.8333 71,48.5C 70.6097,45.8958 69.7763,43.5625 68.5,41.5C 67.6442,34.3663 66.1442,27.3663 64,20.5C 60.8522,24.7577 60.6855,29.091 63.5,33.5C 63.2627,34.791 63.596,35.791 64.5,36.5C 64.1984,39.0593 64.5318,41.3926 65.5,43.5C 65.2627,44.791 65.596,45.791 66.5,46.5C 66.8076,48.924 66.4742,51.2573 65.5,53.5C 63.9436,50.145 62.6102,46.8117 61.5,43.5C 61.5,42.8333 61.5,42.1667 61.5,41.5C 61.1249,39.3024 60.4582,37.3024 59.5,35.5C 59.5,34.8333 59.5,34.1667 59.5,33.5C 59.3412,30.6342 58.3412,28.9675 56.5,28.5C 57.2458,27.2638 57.5792,25.9305 57.5,24.5C 53.3754,24.2774 52.7088,22.7774 55.5,20C 54.552,19.5172 53.552,19.3505 52.5,19.5C 51.9733,23.2439 52.9733,26.4106 55.5,29C 54.193,30.9435 54.193,32.7768 55.5,34.5C 55.5,34.8333 55.5,35.1667 55.5,35.5C 55.9267,38.0098 56.5933,40.3432 57.5,42.5C 57.5,42.8333 57.5,43.1667 57.5,43.5C 57.6204,45.1986 57.9537,46.8653 58.5,48.5C 58.2528,49.7133 57.5862,50.38 56.5,50.5C 55.5416,50.0472 54.7083,49.3805 54,48.5C 53.0053,49.0659 52.172,49.7326 51.5,50.5C 50.8826,50.6107 50.3826,50.944 50,51.5C 47.7908,51.0108 45.9575,50.0108 44.5,48.5C 45.4916,48.6716 46.1583,48.3382 46.5,47.5C 47.0221,45.7809 48.0221,44.4475 49.5,43.5C 50.5,43.5 51.5,43.5 52.5,43.5C 52.5,42.1667 52.5,40.8333 52.5,39.5C 52.405,37.2143 51.7384,35.2143 50.5,33.5C 50.5,33.1667 50.5,32.8333 50.5,32.5C 50.6463,30.0576 49.813,29.3909 48,30.5C 47.6667,29.8333 47.3333,29.1667 47,28.5C 46.6268,31.7423 45.1268,33.0756 42.5,32.5C 42.5,32.1667 42.5,31.8333 42.5,31.5C 42.9724,29.4687 43.9724,27.8021 45.5,26.5C 46.1174,26.6107 46.6174,26.944 47,27.5C 49.1391,25.4153 48.9725,23.7487 46.5,22.5C 45.8761,22.0831 45.5427,21.4164 45.5,20.5C 45.737,17.9365 46.237,17.9365 47,20.5C 47.2904,18.0796 47.7904,15.7463 48.5,13.5C 51.3563,12.1721 54.3563,11.1721 57.5,10.5 Z"/></g>
<g><path style="opacity:1" fill="#878d90" d="M 50.5,32.5 C 49.209,32.2627 48.209,32.596 47.5,33.5C 46.3734,34.1217 45.3734,34.955 44.5,36C 45.7736,36.9772 45.7736,37.8106 44.5,38.5C 43.8688,36.5522 42.8688,34.7189 41.5,33C 41.7284,32.6012 42.0618,32.4346 42.5,32.5C 45.1268,33.0756 46.6268,31.7423 47,28.5C 47.3333,29.1667 47.6667,29.8333 48,30.5C 49.813,29.3909 50.6463,30.0576 50.5,32.5 Z"/></g>
<g><path style="opacity:1" fill="#161719" d="M 40.5,24.5 C 40.9267,27.0098 41.5933,29.3432 42.5,31.5C 42.5,31.8333 42.5,32.1667 42.5,32.5C 42.0618,32.4346 41.7284,32.6012 41.5,33C 42.8688,34.7189 43.8688,36.5522 44.5,38.5C 44.1667,39.1667 43.8333,39.8333 43.5,40.5C 40.2288,38.6328 39.2288,35.9662 40.5,32.5C 39.1268,30.5101 38.1268,28.3434 37.5,26C 38.2438,24.9614 39.2438,24.4614 40.5,24.5 Z"/></g>
<g><path style="opacity:1" fill="#111518" d="M 50.5,32.5 C 50.5,32.8333 50.5,33.1667 50.5,33.5C 49.791,34.404 48.791,34.7373 47.5,34.5C 47.5,34.1667 47.5,33.8333 47.5,33.5C 48.209,32.596 49.209,32.2627 50.5,32.5 Z"/></g>
<g><path style="opacity:1" fill="#9da4a5" d="M 59.5,33.5 C 57.901,33.2322 56.5676,33.5655 55.5,34.5C 54.193,32.7768 54.193,30.9435 55.5,29C 52.9733,26.4106 51.9733,23.2439 52.5,19.5C 53.552,19.3505 54.552,19.5172 55.5,20C 52.7088,22.7774 53.3754,24.2774 57.5,24.5C 57.5792,25.9305 57.2458,27.2638 56.5,28.5C 58.3412,28.9675 59.3412,30.6342 59.5,33.5 Z"/></g>
<g><path style="opacity:1" fill="#151b1d" d="M 59.5,33.5 C 59.5,34.1667 59.5,34.8333 59.5,35.5C 58.1667,35.5 56.8333,35.5 55.5,35.5C 55.5,35.1667 55.5,34.8333 55.5,34.5C 56.5676,33.5655 57.901,33.2322 59.5,33.5 Z"/></g>
<g><path style="opacity:1" fill="#0c1111" d="M 63.5,33.5 C 67.0048,33.6941 67.3382,34.6941 64.5,36.5C 63.596,35.791 63.2627,34.791 63.5,33.5 Z"/></g>
<g><path style="opacity:1" fill="#a3aaad" d="M 50.5,33.5 C 51.7384,35.2143 52.405,37.2143 52.5,39.5C 50.5544,40.0347 49.5544,41.368 49.5,43.5C 48.0221,44.4475 47.0221,45.7809 46.5,47.5C 45.7148,45.6264 45.0482,43.6264 44.5,41.5C 45.8221,41.67 46.9887,41.3366 48,40.5C 48.1805,38.5116 48.0138,36.5116 47.5,34.5C 48.791,34.7373 49.791,34.404 50.5,33.5 Z"/></g>
<g><path style="opacity:1" fill="#96a1a3" d="M 55.5,35.5 C 56.8333,35.5 58.1667,35.5 59.5,35.5C 60.4582,37.3024 61.1249,39.3024 61.5,41.5C 59.901,41.2322 58.5676,41.5655 57.5,42.5C 56.5933,40.3432 55.9267,38.0098 55.5,35.5 Z"/></g>
<g><path style="opacity:1" fill="#9ba4a6" d="M 68.5,41.5 C 66.8212,41.2852 65.8212,41.9519 65.5,43.5C 64.5318,41.3926 64.1984,39.0593 64.5,36.5C 67.3382,34.6941 67.0048,33.6941 63.5,33.5C 60.6855,29.091 60.8522,24.7577 64,20.5C 66.1442,27.3663 67.6442,34.3663 68.5,41.5 Z"/></g>
<g><path style="opacity:1" fill="#e8edef" d="M 47.5,33.5 C 47.5,33.8333 47.5,34.1667 47.5,34.5C 48.0138,36.5116 48.1805,38.5116 48,40.5C 46.9887,41.3366 45.8221,41.67 44.5,41.5C 44.5,40.8333 44.1667,40.5 43.5,40.5C 43.8333,39.8333 44.1667,39.1667 44.5,38.5C 45.7736,37.8106 45.7736,36.9772 44.5,36C 45.3734,34.955 46.3734,34.1217 47.5,33.5 Z"/></g>
<g><path style="opacity:1" fill="#232527" d="M 43.5,40.5 C 44.1667,40.5 44.5,40.8333 44.5,41.5C 45.0482,43.6264 45.7148,45.6264 46.5,47.5C 46.1583,48.3382 45.4916,48.6716 44.5,48.5C 41.2225,46.092 40.8891,43.4254 43.5,40.5 Z"/></g>
<g><path style="opacity:1" fill="#232a2d" d="M 52.5,39.5 C 52.5,40.8333 52.5,42.1667 52.5,43.5C 51.5,43.5 50.5,43.5 49.5,43.5C 49.5544,41.368 50.5544,40.0347 52.5,39.5 Z"/></g>
<g><path style="opacity:1" fill="#0f1315" d="M 61.5,41.5 C 61.5,42.1667 61.5,42.8333 61.5,43.5C 60.1667,43.5 58.8333,43.5 57.5,43.5C 57.5,43.1667 57.5,42.8333 57.5,42.5C 58.5676,41.5655 59.901,41.2322 61.5,41.5 Z"/></g>
<g><path style="opacity:1" fill="#181c1c" d="M 68.5,41.5 C 68.6716,42.4916 68.3382,43.1583 67.5,43.5C 66.596,44.209 66.2627,45.209 66.5,46.5C 65.596,45.791 65.2627,44.791 65.5,43.5C 65.8212,41.9519 66.8212,41.2852 68.5,41.5 Z"/></g>
<g><path style="opacity:1" fill="#7f8b8c" d="M 69.5,33.5 C 72.0631,39.8004 73.5631,46.467 74,53.5C 75.1932,71.4804 75.6932,89.4804 75.5,107.5C 75.1667,107.5 74.8333,107.5 74.5,107.5C 74.8399,104.856 74.1733,102.523 72.5,100.5C 73.3742,98.2534 73.7076,95.9201 73.5,93.5C 74.8333,93.1667 74.8333,92.8333 73.5,92.5C 73.5,90.5 73.5,88.5 73.5,86.5C 68.5,86.5 63.5,86.5 58.5,86.5C 57.1667,86.1667 57.1667,85.8333 58.5,85.5C 62.1667,85.5 65.8333,85.5 69.5,85.5C 69.6665,73.8286 69.4999,62.1619 69,50.5C 68.5604,48.1341 68.0604,45.8008 67.5,43.5C 68.3382,43.1583 68.6716,42.4916 68.5,41.5C 69.7763,43.5625 70.6097,45.8958 71,48.5C 71.3333,48.8333 71.6667,49.1667 72,49.5C 71.5021,44.1662 70.6688,38.8328 69.5,33.5 Z"/></g>
<g><path style="opacity:1" fill="#d9e8e8" d="M 70.5,56.5 C 71.5,56.5 72.5,56.5 73.5,56.5C 73.5,58.8333 73.5,61.1667 73.5,63.5C 72.5,63.5 71.5,63.5 70.5,63.5C 70.5,61.1667 70.5,58.8333 70.5,56.5 Z"/></g>
<g><path style="opacity:1" fill="#d8e8e7" d="M 70.5,64.5 C 71.5,64.5 72.5,64.5 73.5,64.5C 73.5,68.8333 73.5,73.1667 73.5,77.5C 72.5,77.5 71.5,77.5 70.5,77.5C 70.5,73.1667 70.5,68.8333 70.5,64.5 Z"/></g>
<g><path style="opacity:1" fill="#becacc" d="M 67.5,43.5 C 68.0604,45.8008 68.5604,48.1341 69,50.5C 69.4999,62.1619 69.6665,73.8286 69.5,85.5C 65.8333,85.5 62.1667,85.5 58.5,85.5C 58.5,83.1667 58.5,80.8333 58.5,78.5C 59.8221,78.33 60.9887,78.6634 62,79.5C 63.0674,78.8095 64.2341,78.3095 65.5,78C 63.1902,77.5034 60.8568,77.3367 58.5,77.5C 58.5,73.1667 58.5,68.8333 58.5,64.5C 67.8333,64.1667 67.8333,63.8333 58.5,63.5C 58.5,61.1667 58.5,58.8333 58.5,56.5C 61.8499,56.665 65.1832,56.4983 68.5,56C 68.0797,52.9801 67.4131,49.8135 66.5,46.5C 66.2627,45.209 66.596,44.209 67.5,43.5 Z"/></g>
<g><path style="opacity:1" fill="#879697" d="M 57.5,43.5 C 58.8333,43.5 60.1667,43.5 61.5,43.5C 62.6102,46.8117 63.9436,50.145 65.5,53.5C 66.4742,51.2573 66.8076,48.924 66.5,46.5C 67.4131,49.8135 68.0797,52.9801 68.5,56C 65.1832,56.4983 61.8499,56.665 58.5,56.5C 58.5,58.8333 58.5,61.1667 58.5,63.5C 67.8333,63.8333 67.8333,64.1667 58.5,64.5C 58.5,68.8333 58.5,73.1667 58.5,77.5C 60.8568,77.3367 63.1902,77.5034 65.5,78C 64.2341,78.3095 63.0674,78.8095 62,79.5C 60.9887,78.6634 59.8221,78.33 58.5,78.5C 58.5,80.8333 58.5,83.1667 58.5,85.5C 57.1667,85.8333 57.1667,86.1667 58.5,86.5C 58.5,88.5 58.5,90.5 58.5,92.5C 57.1667,92.8333 57.1667,93.1667 58.5,93.5C 58.5,95.5 58.5,97.5 58.5,99.5C 58.5,102.167 58.5,104.833 58.5,107.5C 55.8333,107.833 55.8333,108.167 58.5,108.5C 58.5,110.5 58.5,112.5 58.5,114.5C 55.8333,114.833 55.8333,115.167 58.5,115.5C 58.5,117.5 58.5,119.5 58.5,121.5C 57.1667,121.833 57.1667,122.167 58.5,122.5C 58.5,124.5 58.5,126.5 58.5,128.5C 57.8333,128.5 57.1667,128.5 56.5,128.5C 56.5,127.833 56.1667,127.5 55.5,127.5C 56.1566,101.678 56.4899,76.0112 56.5,50.5C 57.5862,50.38 58.2528,49.7133 58.5,48.5C 57.9537,46.8653 57.6204,45.1986 57.5,43.5 Z"/></g>
<g><path style="opacity:1" fill="#d2dcdd" d="M 70.5,78.5 C 71.5,78.5 72.5,78.5 73.5,78.5C 73.5,80.8333 73.5,83.1667 73.5,85.5C 72.5,85.5 71.5,85.5 70.5,85.5C 70.5,83.1667 70.5,80.8333 70.5,78.5 Z"/></g>
<g><path style="opacity:1" fill="#ccd8da" d="M 58.5,86.5 C 63.5,86.5 68.5,86.5 73.5,86.5C 73.5,88.5 73.5,90.5 73.5,92.5C 68.5,92.5 63.5,92.5 58.5,92.5C 58.5,90.5 58.5,88.5 58.5,86.5 Z"/></g>
<g><path style="opacity:1" fill="#dceaec" d="M 58.5,93.5 C 59.5,93.5 60.5,93.5 61.5,93.5C 61.5,95.5 61.5,97.5 61.5,99.5C 60.5,99.5 59.5,99.5 58.5,99.5C 58.5,97.5 58.5,95.5 58.5,93.5 Z"/></g>
<g><path style="opacity:1" fill="#bbc6c9" d="M 61.5,93.5 C 64.1667,93.5 66.8333,93.5 69.5,93.5C 69.5,98.1667 69.5,102.833 69.5,107.5C 65.8333,107.5 62.1667,107.5 58.5,107.5C 58.5,104.833 58.5,102.167 58.5,99.5C 59.5,99.5 60.5,99.5 61.5,99.5C 61.5,97.5 61.5,95.5 61.5,93.5 Z"/></g>
<g><path style="opacity:1" fill="#d9e3e4" d="M 73.5,93.5 C 73.7076,95.9201 73.3742,98.2534 72.5,100.5C 74.1733,102.523 74.8399,104.856 74.5,107.5C 73.1667,107.5 71.8333,107.5 70.5,107.5C 70.5,102.833 70.5,98.1667 70.5,93.5C 71.5,93.5 72.5,93.5 73.5,93.5 Z"/></g>
<g><path style="opacity:1" fill="#c9d5d7" d="M 58.5,108.5 C 62.1667,108.5 65.8333,108.5 69.5,108.5C 69.5,110.5 69.5,112.5 69.5,114.5C 65.8333,114.5 62.1667,114.5 58.5,114.5C 58.5,112.5 58.5,110.5 58.5,108.5 Z"/></g>
<g><path style="opacity:1" fill="#566465" d="M 58.5,92.5 C 63.5,92.5 68.5,92.5 73.5,92.5C 74.8333,92.8333 74.8333,93.1667 73.5,93.5C 72.5,93.5 71.5,93.5 70.5,93.5C 70.5,98.1667 70.5,102.833 70.5,107.5C 71.8333,107.5 73.1667,107.5 74.5,107.5C 74.8333,107.5 75.1667,107.5 75.5,107.5C 75.5,114.5 75.5,121.5 75.5,128.5C 74.0813,129.451 72.4147,129.784 70.5,129.5C 70.5,131.833 70.5,134.167 70.5,136.5C 77.1667,137.167 77.1667,137.833 70.5,138.5C 70.5,140.167 70.5,141.833 70.5,143.5C 77.1667,143.833 77.1667,144.167 70.5,144.5C 70.5,146.5 70.5,148.5 70.5,150.5C 77.1667,150.833 77.1667,151.167 70.5,151.5C 70.5,153.167 70.5,154.833 70.5,156.5C 72.5,156.5 74.5,156.5 76.5,156.5C 74.7354,157.461 72.7354,157.795 70.5,157.5C 70.1667,157.5 69.8333,157.5 69.5,157.5C 65.8333,157.5 62.1667,157.5 58.5,157.5C 57.209,157.737 56.209,157.404 55.5,156.5C 60.1667,156.5 64.8333,156.5 69.5,156.5C 69.5,154.833 69.5,153.167 69.5,151.5C 52.1667,151.167 52.1667,150.833 69.5,150.5C 69.5,148.5 69.5,146.5 69.5,144.5C 52.1667,144.167 52.1667,143.833 69.5,143.5C 69.8266,138.786 69.4933,134.12 68.5,129.5C 66.674,129.92 64.674,129.92 62.5,129.5C 62.5,131.833 62.5,134.167 62.5,136.5C 63.552,136.351 64.552,136.517 65.5,137C 64.2341,137.309 63.0674,137.809 62,138.5C 60.6667,137.167 59.3333,137.167 58,138.5C 57.3083,137.563 57.475,136.897 58.5,136.5C 59.5,136.5 60.5,136.5 61.5,136.5C 61.5,134.5 61.5,132.5 61.5,130.5C 59.8333,129.833 58.1667,129.167 56.5,128.5C 57.1667,128.5 57.8333,128.5 58.5,128.5C 62.5,128.5 66.5,128.5 70.5,128.5C 71.5,128.5 72.5,128.5 73.5,128.5C 74.4614,126.735 74.7947,124.735 74.5,122.5C 69.1667,122.5 63.8333,122.5 58.5,122.5C 57.1667,122.167 57.1667,121.833 58.5,121.5C 62.1667,121.5 65.8333,121.5 69.5,121.5C 69.5,119.5 69.5,117.5 69.5,115.5C 65.8333,115.5 62.1667,115.5 58.5,115.5C 55.8333,115.167 55.8333,114.833 58.5,114.5C 62.1667,114.5 65.8333,114.5 69.5,114.5C 69.5,112.5 69.5,110.5 69.5,108.5C 65.8333,108.5 62.1667,108.5 58.5,108.5C 55.8333,108.167 55.8333,107.833 58.5,107.5C 62.1667,107.5 65.8333,107.5 69.5,107.5C 69.5,102.833 69.5,98.1667 69.5,93.5C 66.8333,93.5 64.1667,93.5 61.5,93.5C 60.5,93.5 59.5,93.5 58.5,93.5C 57.1667,93.1667 57.1667,92.8333 58.5,92.5 Z"/></g>
<g><path style="opacity:1" fill="#ddebeb" d="M 70.5,108.5 C 71.5,108.5 72.5,108.5 73.5,108.5C 73.5,110.5 73.5,112.5 73.5,114.5C 72.5,114.5 71.5,114.5 70.5,114.5C 70.5,112.5 70.5,110.5 70.5,108.5 Z"/></g>
<g><path style="opacity:1" fill="#c8d6d7" d="M 58.5,115.5 C 62.1667,115.5 65.8333,115.5 69.5,115.5C 69.5,117.5 69.5,119.5 69.5,121.5C 65.8333,121.5 62.1667,121.5 58.5,121.5C 58.5,119.5 58.5,117.5 58.5,115.5 Z"/></g>
<g><path style="opacity:1" fill="#c7d9d8" d="M 70.5,115.5 C 71.8333,115.5 73.1667,115.5 74.5,115.5C 74.5,117.5 74.5,119.5 74.5,121.5C 73.1667,121.5 71.8333,121.5 70.5,121.5C 70.5,119.5 70.5,117.5 70.5,115.5 Z"/></g>
<g><path style="opacity:1" fill="#c2d0d1" d="M 58.5,122.5 C 63.8333,122.5 69.1667,122.5 74.5,122.5C 74.7947,124.735 74.4614,126.735 73.5,128.5C 73.5,126.833 73.5,125.167 73.5,123.5C 72.5,123.5 71.5,123.5 70.5,123.5C 70.5,125.167 70.5,126.833 70.5,128.5C 66.5,128.5 62.5,128.5 58.5,128.5C 58.5,126.5 58.5,124.5 58.5,122.5 Z"/></g>
<g><path style="opacity:1" fill="#dfeeed" d="M 73.5,128.5 C 72.5,128.5 71.5,128.5 70.5,128.5C 70.5,126.833 70.5,125.167 70.5,123.5C 71.5,123.5 72.5,123.5 73.5,123.5C 73.5,125.167 73.5,126.833 73.5,128.5 Z"/></g>
<g><path style="opacity:1" fill="#070707" d="M 107.5,199.5 C 106.511,204.975 106.178,210.642 106.5,216.5C 104.738,216.357 103.071,216.691 101.5,217.5C 100.511,213.893 100.177,210.226 100.5,206.5C 100.5,206.167 100.5,205.833 100.5,205.5C 100.153,199.581 100.153,193.581 100.5,187.5C 100.5,183.167 100.5,178.833 100.5,174.5C 99.1667,174.5 97.8333,174.5 96.5,174.5C 92.1667,175.833 87.8333,175.833 83.5,174.5C 83.2475,171.68 83.7475,169.014 85,166.5C 89.033,162.132 93.3663,158.132 98,154.5C 98.7726,152.648 98.2726,151.314 96.5,150.5C 95.0411,147.076 93.7078,143.576 92.5,140C 95.4838,135.355 99.4838,131.688 104.5,129C 111.956,124.509 119.956,122.509 128.5,123C 131.056,127.288 133.722,131.455 136.5,135.5C 144.824,131.32 153.324,130.653 162,133.5C 162.667,135.167 162.667,136.833 162,138.5C 158.667,143.167 154.667,147.167 150,150.5C 149.357,166.955 142.524,180.121 129.5,190C 122.261,193.466 114.928,196.632 107.5,199.5 Z"/></g>
<g><path style="opacity:1" fill="#818683" d="M 119.5,134.5 C 122.438,132.066 125.271,129.399 128,126.5C 126.733,130.595 123.9,133.262 119.5,134.5 Z"/></g>
<g><path style="opacity:1" fill="#bfcdcd" d="M 75.5,128.5 C 76.3247,132.647 76.8247,136.981 77,141.5C 79.7555,142.07 82.2555,143.07 84.5,144.5C 81.8728,143.908 79.2062,143.575 76.5,143.5C 76.5,147.833 76.5,152.167 76.5,156.5C 74.5,156.5 72.5,156.5 70.5,156.5C 70.5,154.833 70.5,153.167 70.5,151.5C 77.1667,151.167 77.1667,150.833 70.5,150.5C 70.5,148.5 70.5,146.5 70.5,144.5C 77.1667,144.167 77.1667,143.833 70.5,143.5C 70.5,141.833 70.5,140.167 70.5,138.5C 77.1667,137.833 77.1667,137.167 70.5,136.5C 70.5,134.167 70.5,131.833 70.5,129.5C 72.4147,129.784 74.0813,129.451 75.5,128.5 Z"/></g>
<g><path style="opacity:1" fill="#a0a4a3" d="M 119.5,134.5 C 116.753,137.207 113.42,138.873 109.5,139.5C 112.526,137.32 115.86,135.653 119.5,134.5 Z"/></g>
<g><path style="opacity:1" fill="#909695" d="M 109.5,139.5 C 105.327,142.386 100.66,143.553 95.5,143C 100.166,141.768 104.833,140.601 109.5,139.5 Z"/></g>
<g><path style="opacity:1" fill="#eaecec" d="M 84.5,144.5 C 89.0515,145.442 93.0515,147.442 96.5,150.5C 98.2726,151.314 98.7726,152.648 98,154.5C 93.3663,158.132 89.033,162.132 85,166.5C 83.7475,169.014 83.2475,171.68 83.5,174.5C 87.8333,175.833 92.1667,175.833 96.5,174.5C 92.9153,176.046 89.2486,177.712 85.5,179.5C 81.9925,176.934 81.6591,177.434 84.5,181C 82.4762,184.984 83.4762,187.65 87.5,189C 86.436,190.511 85.1026,190.677 83.5,189.5C 81.7472,187.777 79.7472,186.277 77.5,185C 83.327,179.553 82.327,178.053 74.5,180.5C 74.5,179.167 74.5,177.833 74.5,176.5C 75.7072,175.811 77.0406,175.645 78.5,176C 78,175.5 77.5,175 77,174.5C 76.6667,169.5 76.3333,164.5 76,159.5C 75.5026,162.146 75.3359,164.813 75.5,167.5C 73.8333,167.5 72.1667,167.5 70.5,167.5C 70.5,166.167 70.5,164.833 70.5,163.5C 75.8333,163.167 75.8333,162.833 70.5,162.5C 70.5,160.833 70.5,159.167 70.5,157.5C 72.7354,157.795 74.7354,157.461 76.5,156.5C 76.5,152.167 76.5,147.833 76.5,143.5C 79.2062,143.575 81.8728,143.908 84.5,144.5 Z"/></g>
<g><path style="opacity:1" fill="#0a0b0b" d="M 56.5,50.5 C 56.4899,76.0112 56.1566,101.678 55.5,127.5C 55.5,132.5 55.5,137.5 55.5,142.5C 54.209,142.263 53.209,142.596 52.5,143.5C 34.7035,147.816 26.8702,159.149 29,177.5C 31.4544,183.406 33.6211,189.406 35.5,195.5C 34.0532,203.787 30.2198,210.787 24,216.5C 21.0788,221.341 18.4121,226.341 16,231.5C 8.41078,263.905 21.2441,280.572 54.5,281.5C 54.1583,282.338 53.4916,282.672 52.5,282.5C 40.4126,283.024 28.746,281.191 17.5,277C 1.07866,264.401 -3.088,248.568 5,229.5C 10.1691,220.492 15.8358,211.825 22,203.5C 22.4361,201.153 22.9361,198.819 23.5,196.5C 21.3366,190.172 19.17,183.838 17,177.5C 15.9021,158.431 24.7354,147.097 43.5,143.5C 42.5188,135.135 45.8521,132.468 53.5,135.5C 53.8196,107.83 53.9862,80.1632 54,52.5C 53.2917,51.6195 52.4584,50.9528 51.5,50.5C 52.172,49.7326 53.0053,49.0659 54,48.5C 54.7083,49.3805 55.5416,50.0472 56.5,50.5 Z"/></g>
<g><path style="opacity:1" fill="#b8c5c8" d="M 55.5,127.5 C 56.1667,127.5 56.5,127.833 56.5,128.5C 58.1667,129.167 59.8333,129.833 61.5,130.5C 60.5,130.5 59.5,130.5 58.5,130.5C 58.5,132.5 58.5,134.5 58.5,136.5C 57.475,136.897 57.3083,137.563 58,138.5C 59.3333,137.167 60.6667,137.167 62,138.5C 63.0674,137.809 64.2341,137.309 65.5,137C 64.552,136.517 63.552,136.351 62.5,136.5C 62.5,134.167 62.5,131.833 62.5,129.5C 64.674,129.92 66.674,129.92 68.5,129.5C 69.4933,134.12 69.8266,138.786 69.5,143.5C 52.1667,143.833 52.1667,144.167 69.5,144.5C 69.5,146.5 69.5,148.5 69.5,150.5C 52.1667,150.833 52.1667,151.167 69.5,151.5C 69.5,153.167 69.5,154.833 69.5,156.5C 64.8333,156.5 60.1667,156.5 55.5,156.5C 55.5,151.833 55.5,147.167 55.5,142.5C 55.5,137.5 55.5,132.5 55.5,127.5 Z"/></g>
<g><path style="opacity:1" fill="#e0eeee" d="M 61.5,130.5 C 61.5,132.5 61.5,134.5 61.5,136.5C 60.5,136.5 59.5,136.5 58.5,136.5C 58.5,134.5 58.5,132.5 58.5,130.5C 59.5,130.5 60.5,130.5 61.5,130.5 Z"/></g>
<g><path style="opacity:1" fill="#898d8c" d="M 137.5,141.5 C 138.573,142.251 138.74,143.251 138,144.5C 128.833,154.167 117.667,159.667 104.5,161C 112.94,158.85 120.94,155.516 128.5,151C 132.38,148.621 135.38,145.454 137.5,141.5 Z"/></g>
<g><path style="opacity:1" fill="#f2f3f2" d="M 138.5,157.5 C 139.748,158.334 140.415,159.667 140.5,161.5C 137.85,171.668 132.184,179.834 123.5,186C 118.5,188.833 113.5,191.667 108.5,194.5C 107.167,186.833 107.167,179.167 108.5,171.5C 119.134,167.845 129.134,163.179 138.5,157.5 Z"/></g>
<g><path style="opacity:1" fill="#bdc4c8" d="M 54.5,162.5 C 56.9263,163.353 57.7596,165.019 57,167.5C 56.6667,166.833 56.3333,166.167 56,165.5C 55.7435,168.557 55.2435,171.557 54.5,174.5C 54.9569,175.298 55.6236,175.631 56.5,175.5C 57.3007,177.042 57.634,178.708 57.5,180.5C 55.3792,180.675 53.3792,180.341 51.5,179.5C 53.0162,173.886 54.0162,168.22 54.5,162.5 Z"/></g>
<g><path style="opacity:1" fill="#778384" d="M 52.5,143.5 C 53.209,142.596 54.209,142.263 55.5,142.5C 55.5,147.167 55.5,151.833 55.5,156.5C 56.209,157.404 57.209,157.737 58.5,157.5C 58.1412,159.766 58.8078,161.599 60.5,163C 58.8934,164.049 58.2267,165.549 58.5,167.5C 62.1667,167.5 65.8333,167.5 69.5,167.5C 69.7733,165.549 69.1066,164.049 67.5,163C 69.1922,161.599 69.8588,159.766 69.5,157.5C 69.8333,157.5 70.1667,157.5 70.5,157.5C 70.5,159.167 70.5,160.833 70.5,162.5C 75.8333,162.833 75.8333,163.167 70.5,163.5C 70.5,164.833 70.5,166.167 70.5,167.5C 72.1667,167.5 73.8333,167.5 75.5,167.5C 75.3359,164.813 75.5026,162.146 76,159.5C 76.3333,164.5 76.6667,169.5 77,174.5C 77.5,175 78,175.5 78.5,176C 77.0406,175.645 75.7072,175.811 74.5,176.5C 74.5,175.5 74.5,174.5 74.5,173.5C 75.4511,172.081 75.7845,170.415 75.5,168.5C 73.8333,168.5 72.1667,168.5 70.5,168.5C 71.2035,170.946 71.5368,173.28 71.5,175.5C 71.1583,176.338 70.4916,176.672 69.5,176.5C 69.8134,173.753 69.48,171.086 68.5,168.5C 64.7119,168.743 60.8786,168.743 57,168.5C 56.2204,170.387 56.3871,172.054 57.5,173.5C 57.1667,174.167 56.8333,174.833 56.5,175.5C 55.6236,175.631 54.9569,175.298 54.5,174.5C 55.2435,171.557 55.7435,168.557 56,165.5C 56.3333,166.167 56.6667,166.833 57,167.5C 57.7596,165.019 56.9263,163.353 54.5,162.5C 55.1229,155.745 54.4563,149.412 52.5,143.5 Z"/></g>
<g><path style="opacity:1" fill="#bcc9ca" d="M 58.5,157.5 C 62.1667,157.5 65.8333,157.5 69.5,157.5C 69.8588,159.766 69.1922,161.599 67.5,163C 69.1066,164.049 69.7733,165.549 69.5,167.5C 65.8333,167.5 62.1667,167.5 58.5,167.5C 58.2267,165.549 58.8934,164.049 60.5,163C 58.8078,161.599 58.1412,159.766 58.5,157.5 Z"/></g>
<g><path style="opacity:1" fill="#abbbbb" d="M 74.5,173.5 C 73.7777,174.551 72.7777,175.218 71.5,175.5C 71.5368,173.28 71.2035,170.946 70.5,168.5C 72.1667,168.5 73.8333,168.5 75.5,168.5C 75.7845,170.415 75.4511,172.081 74.5,173.5 Z"/></g>
<g><path style="opacity:1" fill="#f7f8f8" d="M 96.5,174.5 C 97.8333,174.5 99.1667,174.5 100.5,174.5C 100.5,178.833 100.5,183.167 100.5,187.5C 95.729,193.618 95.729,199.618 100.5,205.5C 100.5,205.833 100.5,206.167 100.5,206.5C 99.6773,209.977 99.1773,213.644 99,217.5C 97.2507,216.447 95.7507,216.78 94.5,218.5C 88.1329,218.872 85.9662,222.206 88,228.5C 88.3768,229.942 89.2101,230.942 90.5,231.5C 91.0668,233.03 91.7334,234.53 92.5,236C 86.5092,236.499 80.5092,236.666 74.5,236.5C 74.3335,225.828 74.5002,215.161 75,204.5C 76.5342,203.119 76.3675,201.786 74.5,200.5C 74.5,199.5 74.5,198.5 74.5,197.5C 76.6208,197.325 78.6208,197.659 80.5,198.5C 82.8676,196.044 83.8676,193.044 83.5,189.5C 85.1026,190.677 86.436,190.511 87.5,189C 83.4762,187.65 82.4762,184.984 84.5,181C 81.6591,177.434 81.9925,176.934 85.5,179.5C 89.2486,177.712 92.9153,176.046 96.5,174.5 Z"/></g>
<g><path style="opacity:1" fill="#131516" d="M 57.5,173.5 C 63.8952,176.595 63.8952,179.595 57.5,182.5C 56.6042,185.144 55.7709,187.81 55,190.5C 53.5861,191.413 52.0861,191.413 50.5,190.5C 49.8902,189.609 49.5569,188.609 49.5,187.5C 54.3052,186.39 54.6385,184.39 50.5,181.5C 50.5,181.167 50.5,180.833 50.5,180.5C 50.5,179.833 50.8333,179.5 51.5,179.5C 53.3792,180.341 55.3792,180.675 57.5,180.5C 57.634,178.708 57.3007,177.042 56.5,175.5C 56.8333,174.833 57.1667,174.167 57.5,173.5 Z"/></g>
<g><path style="opacity:1" fill="#bbc3c3" d="M 69.5,176.5 C 66.1657,169.801 64.1657,170.468 63.5,178.5C 73.6716,178.823 77.5049,183.823 75,193.5C 72.5464,195.441 70.713,197.775 69.5,200.5C 69.9227,202.781 69.256,204.448 67.5,205.5C 67.9926,203.194 68.3259,200.861 68.5,198.5C 66.8333,198.5 65.1667,198.5 63.5,198.5C 63.6741,200.861 64.0074,203.194 64.5,205.5C 63.0357,204.595 61.7024,204.595 60.5,205.5C 59.8333,204.833 59.1667,204.167 58.5,203.5C 59.8123,202.188 61.1457,200.854 62.5,199.5C 61.7174,197.712 60.3841,196.712 58.5,196.5C 56.1123,190.571 53.4456,190.904 50.5,197.5C 49.596,196.791 49.2627,195.791 49.5,194.5C 49.2322,192.901 49.5655,191.568 50.5,190.5C 52.0861,191.413 53.5861,191.413 55,190.5C 55.7709,187.81 56.6042,185.144 57.5,182.5C 63.8952,179.595 63.8952,176.595 57.5,173.5C 56.3871,172.054 56.2204,170.387 57,168.5C 60.8786,168.743 64.7119,168.743 68.5,168.5C 69.48,171.086 69.8134,173.753 69.5,176.5 Z"/></g>
<g><path style="opacity:1" fill="#131515" d="M 69.5,176.5 C 70.4916,176.672 71.1583,176.338 71.5,175.5C 72.7777,175.218 73.7777,174.551 74.5,173.5C 74.5,174.5 74.5,175.5 74.5,176.5C 74.5,177.833 74.5,179.167 74.5,180.5C 82.327,178.053 83.327,179.553 77.5,185C 79.7472,186.277 81.7472,187.777 83.5,189.5C 82.209,189.263 81.209,189.596 80.5,190.5C 79.0047,190.415 78.0047,191.081 77.5,192.5C 78.548,193.548 79.548,194.548 80.5,195.5C 80.5,196.5 80.5,197.5 80.5,198.5C 78.6208,197.659 76.6208,197.325 74.5,197.5C 74.5,198.5 74.5,199.5 74.5,200.5C 74.719,201.675 74.3857,202.675 73.5,203.5C 72.1482,202.476 70.8149,201.476 69.5,200.5C 70.713,197.775 72.5464,195.441 75,193.5C 77.5049,183.823 73.6716,178.823 63.5,178.5C 64.1657,170.468 66.1657,169.801 69.5,176.5 Z"/></g>
<g><path style="opacity:1" fill="#040606" d="M 63.5,181.5 C 73.6294,182.106 75.9628,186.606 70.5,195C 62.3776,197.858 58.5443,195.025 59,186.5C 60.025,184.313 61.525,182.646 63.5,181.5 Z"/></g>
<g><path style="opacity:1" fill="#eef2f2" d="M 50.5,181.5 C 54.6385,184.39 54.3052,186.39 49.5,187.5C 49.5172,185.435 49.8505,183.435 50.5,181.5 Z"/></g>
<g><path style="opacity:1" fill="#818786" d="M 50.5,180.5 C 50.5,180.833 50.5,181.167 50.5,181.5C 49.8505,183.435 49.5172,185.435 49.5,187.5C 49.5569,188.609 49.8902,189.609 50.5,190.5C 49.5655,191.568 49.2322,192.901 49.5,194.5C 47.1727,189.746 47.506,185.079 50.5,180.5 Z"/></g>
<g><path style="opacity:1" fill="#afb0b1" d="M 100.5,187.5 C 100.153,193.581 100.153,199.581 100.5,205.5C 95.729,199.618 95.729,193.618 100.5,187.5 Z"/></g>
<g><path style="opacity:1" fill="#e3e5e5" d="M 80.5,190.5 C 82.8507,191.916 82.8507,193.583 80.5,195.5C 79.548,194.548 78.548,193.548 77.5,192.5C 78.0047,191.081 79.0047,190.415 80.5,190.5 Z"/></g>
<g><path style="opacity:1" fill="#0d0f0f" d="M 58.5,196.5 C 56.1346,197.008 53.8013,197.675 51.5,198.5C 50.8933,198.376 50.56,198.043 50.5,197.5C 53.4456,190.904 56.1123,190.571 58.5,196.5 Z"/></g>
<g><path style="opacity:1" fill="#858686" d="M 80.5,190.5 C 81.209,189.596 82.209,189.263 83.5,189.5C 83.8676,193.044 82.8676,196.044 80.5,198.5C 80.5,197.5 80.5,196.5 80.5,195.5C 82.8507,193.583 82.8507,191.916 80.5,190.5 Z"/></g>
<g><path style="opacity:1" fill="#0a0e10" d="M 58.5,196.5 C 60.3841,196.712 61.7174,197.712 62.5,199.5C 61.1457,200.854 59.8123,202.188 58.5,203.5C 57.8333,203.5 57.1667,203.5 56.5,203.5C 56.767,201.035 57.4336,198.701 58.5,196.5 Z"/></g>
<g><path style="opacity:1" fill="#070d0d" d="M 67.5,205.5 C 66.5,205.5 65.5,205.5 64.5,205.5C 64.0074,203.194 63.6741,200.861 63.5,198.5C 65.1667,198.5 66.8333,198.5 68.5,198.5C 68.3259,200.861 67.9926,203.194 67.5,205.5 Z"/></g>
<g><path style="opacity:1" fill="#3a3a3d" d="M 124.5,202.5 C 122.958,203.301 121.292,203.634 119.5,203.5C 120.879,201.403 122.545,201.07 124.5,202.5 Z"/></g>
<g><path style="opacity:1" fill="#929293" d="M 116.5,205.5 C 115.081,206.451 113.415,206.784 111.5,206.5C 111.5,207.5 111.5,208.5 111.5,209.5C 110.566,208.432 110.232,207.099 110.5,205.5C 112.5,205.5 114.5,205.5 116.5,205.5 Z"/></g>
<g><path style="opacity:1" fill="#90999a" d="M 69.5,200.5 C 70.8149,201.476 72.1482,202.476 73.5,203.5C 74.3857,202.675 74.719,201.675 74.5,200.5C 76.3675,201.786 76.5342,203.119 75,204.5C 74.5002,215.161 74.3335,225.828 74.5,236.5C 80.31,237.49 86.31,237.823 92.5,237.5C 92.5,242.167 92.5,246.833 92.5,251.5C 91.8333,251.5 91.1667,251.5 90.5,251.5C 89.4789,251.899 89.1455,253.233 89.5,255.5C 87.901,255.768 86.5676,255.434 85.5,254.5C 85.5,252.833 85.5,251.167 85.5,249.5C 86.5,249.5 87.5,249.5 88.5,249.5C 89.1499,249.196 89.8165,248.863 90.5,248.5C 91.487,245.232 91.8204,241.898 91.5,238.5C 85.7945,238.171 80.1278,238.505 74.5,239.5C 75.325,240.386 76.325,240.719 77.5,240.5C 77.5,242.5 77.5,244.5 77.5,246.5C 69.1667,246.5 60.8333,246.5 52.5,246.5C 52.5,244.5 52.5,242.5 52.5,240.5C 54.288,240.785 55.9547,240.452 57.5,239.5C 51.8722,238.505 46.2055,238.171 40.5,238.5C 40.5,241.833 40.5,245.167 40.5,248.5C 39.791,249.404 38.791,249.737 37.5,249.5C 37.5,245.5 37.5,241.5 37.5,237.5C 44.1667,237.5 50.8333,237.5 57.5,237.5C 57.8106,226.086 57.4773,214.752 56.5,203.5C 57.1667,203.5 57.8333,203.5 58.5,203.5C 59.1667,204.167 59.8333,204.833 60.5,205.5C 61.7024,204.595 63.0357,204.595 64.5,205.5C 65.5,205.5 66.5,205.5 67.5,205.5C 69.256,204.448 69.9227,202.781 69.5,200.5 Z"/></g>
<g><path style="opacity:1" fill="#bfc7ca" d="M 61.5,206.5 C 63.6112,207.38 65.6112,207.38 67.5,206.5C 66.8581,217.221 67.5247,227.554 69.5,237.5C 69.762,238.978 69.4287,240.311 68.5,241.5C 67.1575,240.098 66.3242,240.431 66,242.5C 65,241.167 64,241.167 63,242.5C 62.6667,241.833 62.3333,241.167 62,240.5C 61.2904,241.973 60.1238,242.64 58.5,242.5C 58.5,240.833 58.5,239.167 58.5,237.5C 59.5,237.5 60.5,237.5 61.5,237.5C 61.5,227.167 61.5,216.833 61.5,206.5 Z"/></g>
<g><path style="opacity:1" fill="#e3e9e9" d="M 71.5,205.5 C 72.8279,210.288 73.4946,215.454 73.5,221C 73.3333,226.167 73.1667,231.333 73,236.5C 72.586,236.957 72.086,237.291 71.5,237.5C 70.1921,226.772 70.1921,216.106 71.5,205.5 Z"/></g>
<g><path style="opacity:1" fill="#e8f1f1" d="M 67.5,206.5 C 69.4753,216.446 70.1419,226.779 69.5,237.5C 67.5247,227.554 66.8581,217.221 67.5,206.5 Z"/></g>
<g><path style="opacity:1" fill="#626365" d="M 107.5,199.5 C 107.179,205.026 107.512,210.36 108.5,215.5C 108.5,215.833 108.5,216.167 108.5,216.5C 107.833,216.5 107.167,216.5 106.5,216.5C 106.178,210.642 106.511,204.975 107.5,199.5 Z"/></g>
<g><path style="opacity:1" fill="#040506" d="M 109.5,204.5 C 112.059,204.198 114.393,204.532 116.5,205.5C 114.5,205.5 112.5,205.5 110.5,205.5C 110.232,207.099 110.566,208.432 111.5,209.5C 113.415,209.216 115.081,209.549 116.5,210.5C 114.5,210.5 112.5,210.5 110.5,210.5C 110.5,212.167 110.5,213.833 110.5,215.5C 112.5,215.5 114.5,215.5 116.5,215.5C 116.5,215.833 116.5,216.167 116.5,216.5C 114.167,216.5 111.833,216.5 109.5,216.5C 109.5,212.5 109.5,208.5 109.5,204.5 Z"/></g>
<g><path style="opacity:1" fill="#161717" d="M 132.5,208.5 C 133.677,210.679 134.677,213.013 135.5,215.5C 135.565,215.938 135.399,216.272 135,216.5C 133.491,214.081 131.325,213.081 128.5,213.5C 128.719,214.675 128.386,215.675 127.5,216.5C 126.438,215.575 126.438,214.575 127.5,213.5C 128.296,210.444 129.296,207.444 130.5,204.5C 132.111,205.32 132.778,206.654 132.5,208.5 Z"/></g>
<g><path style="opacity:1" fill="#ccd0d0" d="M 132.5,208.5 C 132.5,209.5 132.5,210.5 132.5,211.5C 129.002,211.435 128.502,210.101 131,207.5C 131.383,208.056 131.883,208.389 132.5,208.5 Z"/></g>
<g><path style="opacity:1" fill="#1f2121" d="M 117.5,204.5 C 118.496,204.414 119.329,204.748 120,205.5C 123.639,215.138 125.306,214.805 125,204.5C 125.827,208.541 125.66,212.541 124.5,216.5C 122.747,213.995 121.247,211.329 120,208.5C 119.503,211.146 119.336,213.813 119.5,216.5C 118.833,216.5 118.167,216.5 117.5,216.5C 117.5,212.5 117.5,208.5 117.5,204.5 Z"/></g>
<g><path style="opacity:1" fill="#aaacae" d="M 109.5,204.5 C 109.5,208.5 109.5,212.5 109.5,216.5C 111.833,216.5 114.167,216.5 116.5,216.5C 116.833,216.5 117.167,216.5 117.5,216.5C 118.167,216.5 118.833,216.5 119.5,216.5C 116.642,217.166 113.642,217.833 110.5,218.5C 111.326,219.451 111.492,220.451 111,221.5C 110.148,220.429 109.315,219.429 108.5,218.5C 108.5,217.833 108.5,217.167 108.5,216.5C 108.5,216.167 108.5,215.833 108.5,215.5C 108.185,211.629 108.518,207.962 109.5,204.5 Z"/></g>
<g><path style="opacity:1" fill="#2d2f2f" d="M 94.5,218.5 C 96.1027,222.478 95.4361,223.144 92.5,220.5C 90.0526,220.901 89.0526,222.401 89.5,225C 89.1744,227.271 90.0078,228.771 92,229.5C 93.6532,229.18 94.6532,228.18 95,226.5C 96.1772,230.492 94.6772,232.158 90.5,231.5C 89.2101,230.942 88.3768,229.942 88,228.5C 85.9662,222.206 88.1329,218.872 94.5,218.5 Z"/></g>
<g><path style="opacity:1" fill="#e3e8eb" d="M 60.5,205.5 C 60.5,206.167 60.8333,206.5 61.5,206.5C 61.5,216.833 61.5,227.167 61.5,237.5C 60.5,237.5 59.5,237.5 58.5,237.5C 57.8572,226.448 58.5238,215.781 60.5,205.5 Z"/></g>
<g><path style="opacity:1" fill="#060708" d="M 150.5,218.5 C 151.482,221.962 151.815,225.629 151.5,229.5C 153.781,229.077 155.448,229.744 156.5,231.5C 154.5,231.5 152.5,231.5 150.5,231.5C 150.5,227.167 150.5,222.833 150.5,218.5 Z"/></g>
<g><path style="opacity:1" fill="#6b6b6b" d="M 162.5,238.5 C 161.849,239.091 161.182,239.757 160.5,240.5C 159.824,239.398 159.158,238.398 158.5,237.5C 158.557,236.391 158.89,235.391 159.5,234.5C 160.077,233.227 160.743,233.227 161.5,234.5C 162.246,235.736 162.579,237.07 162.5,238.5 Z"/></g>
<g><path style="opacity:1" fill="#f6f8f9" d="M 88.5,249.5 C 72.6754,248.504 56.6754,248.17 40.5,248.5C 40.5,245.167 40.5,241.833 40.5,238.5C 46.2055,238.171 51.8722,238.505 57.5,239.5C 55.9547,240.452 54.288,240.785 52.5,240.5C 52.5,242.5 52.5,244.5 52.5,246.5C 60.8333,246.5 69.1667,246.5 77.5,246.5C 77.5,244.5 77.5,242.5 77.5,240.5C 76.325,240.719 75.325,240.386 74.5,239.5C 80.1278,238.505 85.7945,238.171 91.5,238.5C 91.8204,241.898 91.487,245.232 90.5,248.5C 89.8165,248.863 89.1499,249.196 88.5,249.5 Z"/></g>
<g><path style="opacity:1" fill="#222525" d="M 158.5,237.5 C 159.158,238.398 159.824,239.398 160.5,240.5C 161.182,239.757 161.849,239.091 162.5,238.5C 163.928,241.012 164.428,243.678 164,246.5C 163.313,243.574 161.48,242.241 158.5,242.5C 158.771,244.38 158.104,245.713 156.5,246.5C 156.756,243.402 157.422,240.402 158.5,237.5 Z"/></g>
<g><path style="opacity:1" fill="#e7eaeb" d="M 124.5,202.5 C 126.007,206.042 127.007,209.708 127.5,213.5C 126.438,214.575 126.438,215.575 127.5,216.5C 128.386,215.675 128.719,214.675 128.5,213.5C 131.325,213.081 133.491,214.081 135,216.5C 135.399,216.272 135.565,215.938 135.5,215.5C 137.167,216.5 138.5,217.833 139.5,219.5C 137.236,218.781 134.903,218.448 132.5,218.5C 132.334,222.846 132.501,227.179 133,231.5C 133.411,223.947 135.244,223.614 138.5,230.5C 139.689,231.429 141.022,231.762 142.5,231.5C 142.384,228.09 144.05,226.756 147.5,227.5C 147.5,226.833 147.5,226.167 147.5,225.5C 148.117,225.611 148.617,225.944 149,226.5C 149.183,223.635 149.683,220.969 150.5,218.5C 150.5,222.833 150.5,227.167 150.5,231.5C 152.5,231.5 154.5,231.5 156.5,231.5C 155.737,232.268 154.737,232.768 153.5,233C 155.436,233.813 157.436,234.313 159.5,234.5C 158.89,235.391 158.557,236.391 158.5,237.5C 157.422,240.402 156.756,243.402 156.5,246.5C 155.833,246.167 155.167,245.833 154.5,245.5C 155.626,244.142 155.626,242.808 154.5,241.5C 153.614,242.325 153.281,243.325 153.5,244.5C 150.07,245.245 148.403,243.911 148.5,240.5C 148.38,237.378 149.713,235.378 152.5,234.5C 150.847,233.201 149.347,233.534 148,235.5C 147.503,237.81 147.337,240.143 147.5,242.5C 146.833,243.833 146.167,245.167 145.5,246.5C 145.666,242.154 145.499,237.821 145,233.5C 144.667,236.167 144.333,238.833 144,241.5C 142.391,238.593 140.558,235.927 138.5,233.5C 137.527,235.948 137.194,238.615 137.5,241.5C 135.703,241.935 133.703,241.935 131.5,241.5C 131.5,242.5 131.5,243.5 131.5,244.5C 130.566,243.432 130.232,242.099 130.5,240.5C 137.167,240.167 137.167,239.833 130.5,239.5C 130.5,238.167 130.5,236.833 130.5,235.5C 132.604,235.799 134.604,235.466 136.5,234.5C 134.257,233.526 131.924,233.192 129.5,233.5C 128.903,238.294 129.57,242.627 131.5,246.5C 131.433,247.959 131.766,249.292 132.5,250.5C 131.503,250.47 130.836,250.97 130.5,252C 129.717,255.632 128.551,259.132 127,262.5C 125.98,261.109 125.147,259.609 124.5,258C 127.041,255.607 127.041,253.44 124.5,251.5C 123.432,250.566 122.099,250.232 120.5,250.5C 120.338,248.473 120.505,246.473 121,244.5C 122.908,247.332 123.741,246.999 123.5,243.5C 122.833,242.833 122.167,242.167 121.5,241.5C 121.326,239.139 120.993,236.806 120.5,234.5C 119.791,233.596 118.791,233.263 117.5,233.5C 117.817,237.702 117.483,241.702 116.5,245.5C 115.777,241.263 114.443,237.263 112.5,233.5C 111.03,236.707 109.863,240.041 109,243.5C 107.301,244.406 105.467,244.739 103.5,244.5C 103.823,240.774 103.489,237.107 102.5,233.5C 101.508,237.783 101.174,242.116 101.5,246.5C 104.187,246.664 106.854,246.497 109.5,246C 110.337,244.989 110.67,243.822 110.5,242.5C 113.911,241.933 115.911,243.266 116.5,246.5C 117.167,246.5 117.833,246.5 118.5,246.5C 118.833,246.5 119.167,246.5 119.5,246.5C 118.949,249.807 118.616,253.14 118.5,256.5C 117.645,258.821 117.978,261.154 119.5,263.5C 120.308,261.577 120.808,259.577 121,257.5C 123.012,259.562 125.012,261.562 127,263.5C 129.02,262.968 129.853,261.635 129.5,259.5C 132.841,258.843 134.841,260.176 135.5,263.5C 135.833,263.333 136.167,263.167 136.5,263C 135.268,260.234 134.268,257.401 133.5,254.5C 135.379,254.607 135.712,254.107 134.5,253C 135.667,252.5 136.5,251.667 137,250.5C 137.383,251.056 137.883,251.389 138.5,251.5C 135.685,255.76 136.018,259.76 139.5,263.5C 138.662,263.842 138.328,264.508 138.5,265.5C 137.508,265.328 136.842,265.662 136.5,266.5C 135.774,269.179 134.941,271.846 134,274.5C 132.836,271.865 131.669,269.198 130.5,266.5C 130.167,266.833 129.833,267.167 129.5,267.5C 130.881,271.075 131.881,274.742 132.5,278.5C 131.391,278.557 130.391,278.89 129.5,279.5C 128.032,275.294 127.032,270.961 126.5,266.5C 125.5,266.5 124.5,266.5 123.5,266.5C 122.833,270.5 122.167,274.5 121.5,278.5C 121.167,278.5 120.833,278.5 120.5,278.5C 119.081,277.549 117.415,277.216 115.5,277.5C 115.5,273.833 115.5,270.167 115.5,266.5C 115.631,265.761 115.464,265.094 115,264.5C 112.92,267.065 111.087,269.732 109.5,272.5C 108.835,270.631 108.169,268.631 107.5,266.5C 106.516,269.428 106.183,272.428 106.5,275.5C 105.833,275.5 105.5,275.833 105.5,276.5C 104.604,275.494 103.938,275.494 103.5,276.5C 102.292,277.234 100.959,277.567 99.5,277.5C 99.5,276.167 99.5,274.833 99.5,273.5C 106.167,272.833 106.167,272.167 99.5,271.5C 99.5,270.167 99.5,268.833 99.5,267.5C 101.527,267.662 103.527,267.495 105.5,267C 103.19,266.503 100.857,266.337 98.5,266.5C 98.1667,266.5 97.8333,266.5 97.5,266.5C 99.2922,265.691 101.292,265.191 103.5,265C 100.894,263.35 100.894,261.85 103.5,260.5C 104.268,261.263 104.768,262.263 105,263.5C 105.052,258.908 103.885,254.575 101.5,250.5C 99.708,254.374 98.208,258.374 97,262.5C 95.6439,261.62 94.1439,261.286 92.5,261.5C 92.5,258.167 92.5,254.833 92.5,251.5C 92.5,246.833 92.5,242.167 92.5,237.5C 86.31,237.823 80.31,237.49 74.5,236.5C 80.5092,236.666 86.5092,236.499 92.5,236C 91.7334,234.53 91.0668,233.03 90.5,231.5C 94.6772,232.158 96.1772,230.492 95,226.5C 94.6532,228.18 93.6532,229.18 92,229.5C 90.0078,228.771 89.1744,227.271 89.5,225C 89.0526,222.401 90.0526,220.901 92.5,220.5C 95.4361,223.144 96.1027,222.478 94.5,218.5C 95.7507,216.78 97.2507,216.447 99,217.5C 99.1773,213.644 99.6773,209.977 100.5,206.5C 100.177,210.226 100.511,213.893 101.5,217.5C 103.071,216.691 104.738,216.357 106.5,216.5C 107.167,216.5 107.833,216.5 108.5,216.5C 108.5,217.167 108.5,217.833 108.5,218.5C 109.315,219.429 110.148,220.429 111,221.5C 111.492,220.451 111.326,219.451 110.5,218.5C 113.642,217.833 116.642,217.166 119.5,216.5C 119.336,213.813 119.503,211.146 120,208.5C 121.247,211.329 122.747,213.995 124.5,216.5C 125.66,212.541 125.827,208.541 125,204.5C 125.306,214.805 123.639,215.138 120,205.5C 119.329,204.748 118.496,204.414 117.5,204.5C 117.842,203.662 118.508,203.328 119.5,203.5C 121.292,203.634 122.958,203.301 124.5,202.5 Z"/></g>
<g><path style="opacity:1" fill="#5a6161" d="M 94.5,233.5 C 94.3284,234.492 94.6618,235.158 95.5,235.5C 95.5,236.833 95.5,238.167 95.5,239.5C 100.833,239.833 100.833,240.167 95.5,240.5C 94.765,248.39 94.0984,248.224 93.5,240C 93.5039,237.639 93.8373,235.473 94.5,233.5 Z"/></g>
<g><path style="opacity:1" fill="#5b6061" d="M 138.5,233.5 C 138.365,235.554 139.032,237.221 140.5,238.5C 139.834,241.028 139.168,243.694 138.5,246.5C 137.548,244.955 137.215,243.288 137.5,241.5C 137.194,238.615 137.527,235.948 138.5,233.5 Z"/></g>
<g><path style="opacity:1" fill="#494f4f" d="M 123.5,243.5 C 123.338,239.823 124.338,236.489 126.5,233.5C 127.833,237.833 127.833,242.167 126.5,246.5C 125.692,244.577 125.192,242.577 125,240.5C 124.768,241.737 124.268,242.737 123.5,243.5 Z"/></g>
<g><path style="opacity:1" fill="#0d1110" d="M 120.5,234.5 C 120.993,236.806 121.326,239.139 121.5,241.5C 120.732,240.737 120.232,239.737 120,238.5C 119.503,241.146 119.336,243.813 119.5,246.5C 119.167,246.5 118.833,246.5 118.5,246.5C 117.911,242.029 118.577,238.029 120.5,234.5 Z"/></g>
<g><path style="opacity:1" fill="#181b1b" d="M 116.5,245.5 C 116.5,245.833 116.5,246.167 116.5,246.5C 115.911,243.266 113.911,241.933 110.5,242.5C 110.67,243.822 110.337,244.989 109.5,246C 106.854,246.497 104.187,246.664 101.5,246.5C 101.174,242.116 101.508,237.783 102.5,233.5C 103.489,237.107 103.823,240.774 103.5,244.5C 105.467,244.739 107.301,244.406 109,243.5C 109.863,240.041 111.03,236.707 112.5,233.5C 114.443,237.263 115.777,241.263 116.5,245.5 Z"/></g>
<g><path style="opacity:1" fill="#cbd1d1" d="M 112.5,236.5 C 113.782,237.708 113.782,239.042 112.5,240.5C 111.708,239.3 111.708,237.967 112.5,236.5 Z"/></g>
<g><path style="opacity:1" fill="#222425" d="M 152.5,234.5 C 149.713,235.378 148.38,237.378 148.5,240.5C 148.403,243.911 150.07,245.245 153.5,244.5C 153.281,243.325 153.614,242.325 154.5,241.5C 155.626,242.808 155.626,244.142 154.5,245.5C 150.895,247.353 148.562,246.353 147.5,242.5C 147.337,240.143 147.503,237.81 148,235.5C 149.347,233.534 150.847,233.201 152.5,234.5 Z"/></g>
<g><path style="opacity:1" fill="#0f1111" d="M 138.5,233.5 C 140.558,235.927 142.391,238.593 144,241.5C 144.333,238.833 144.667,236.167 145,233.5C 145.499,237.821 145.666,242.154 145.5,246.5C 142.862,244.582 141.195,241.915 140.5,238.5C 139.032,237.221 138.365,235.554 138.5,233.5 Z"/></g>
<g><path style="opacity:1" fill="#0f1313" d="M 131.5,244.5 C 138.167,245.167 138.167,245.833 131.5,246.5C 129.57,242.627 128.903,238.294 129.5,233.5C 131.924,233.192 134.257,233.526 136.5,234.5C 134.604,235.466 132.604,235.799 130.5,235.5C 130.5,236.833 130.5,238.167 130.5,239.5C 137.167,239.833 137.167,240.167 130.5,240.5C 130.232,242.099 130.566,243.432 131.5,244.5 Z"/></g>
<g><path style="opacity:1" fill="#1c1f21" d="M 152.5,234.5 C 154.973,234.604 155.639,235.604 154.5,237.5C 153.575,236.643 152.908,235.643 152.5,234.5 Z"/></g>
<g><path style="opacity:1" fill="#101414" d="M 94.5,233.5 C 96.604,233.201 98.604,233.534 100.5,234.5C 98.9547,235.452 97.288,235.785 95.5,235.5C 94.6618,235.158 94.3284,234.492 94.5,233.5 Z"/></g>
<g><path style="opacity:1" fill="#505656" d="M 120.5,234.5 C 118.577,238.029 117.911,242.029 118.5,246.5C 117.833,246.5 117.167,246.5 116.5,246.5C 116.5,246.167 116.5,245.833 116.5,245.5C 117.483,241.702 117.817,237.702 117.5,233.5C 118.791,233.263 119.791,233.596 120.5,234.5 Z"/></g>
<g><path style="opacity:1" fill="#161919" d="M 147.5,227.5 C 148.249,228.531 148.915,229.698 149.5,231C 149.167,231.167 148.833,231.333 148.5,231.5C 147.571,230.311 147.238,228.978 147.5,227.5 Z"/></g>
<g><path style="opacity:1" fill="#1b2120" d="M 139.5,219.5 C 139.896,222.044 139.229,224.211 137.5,226C 138.772,227.307 139.772,228.807 140.5,230.5C 141.359,228 142.359,225.667 143.5,223.5C 143.215,221.712 143.548,220.045 144.5,218.5C 146.456,220.351 147.456,222.684 147.5,225.5C 147.5,226.167 147.5,226.833 147.5,227.5C 144.05,226.756 142.384,228.09 142.5,231.5C 141.022,231.762 139.689,231.429 138.5,230.5C 135.244,223.614 133.411,223.947 133,231.5C 132.501,227.179 132.334,222.846 132.5,218.5C 134.903,218.448 137.236,218.781 139.5,219.5 Z"/></g>
<g><path style="opacity:1" fill="#343939" d="M 122.5,218.5 C 123.321,221.641 123.821,224.975 124,228.5C 125.356,229.38 126.856,229.714 128.5,229.5C 128.177,225.774 128.511,222.107 129.5,218.5C 130.659,222.122 130.825,225.789 130,229.5C 127.602,232.054 125.269,232.054 123,229.5C 122.501,225.848 122.335,222.182 122.5,218.5 Z"/></g>
<g><path style="opacity:1" fill="#242526" d="M 97.5,218.5 C 98.3213,221.641 98.8213,224.975 99,228.5C 100.356,229.38 101.856,229.714 103.5,229.5C 103.177,225.774 103.511,222.107 104.5,218.5C 105.773,222.55 105.606,226.55 104,230.5C 101.733,231.935 99.7328,231.602 98,229.5C 97.5014,225.848 97.3347,222.182 97.5,218.5 Z"/></g>
<g><path style="opacity:1" fill="#1c1d1d" d="M 108.5,218.5 C 108.5,222.167 108.5,225.833 108.5,229.5C 109.978,229.238 111.311,229.571 112.5,230.5C 110.604,231.466 108.604,231.799 106.5,231.5C 105.903,226.706 106.57,222.373 108.5,218.5 Z"/></g>
<g><path style="opacity:1" fill="#5d6061" d="M 116.5,220.5 C 117.167,220.5 117.833,220.5 118.5,220.5C 118.823,224.226 118.489,227.893 117.5,231.5C 116.692,231.192 116.025,230.692 115.5,230C 116.451,226.943 116.784,223.777 116.5,220.5 Z"/></g>
<g><path style="opacity:1" fill="#a5aead" d="M 143.5,223.5 C 145.854,222.506 146.854,223.506 146.5,226.5C 145.5,226.5 144.5,226.5 143.5,226.5C 143.5,225.5 143.5,224.5 143.5,223.5 Z"/></g>
<g><path style="opacity:1" fill="#d8dfdf" d="M 133.5,220.5 C 135.167,220.5 136.833,220.5 138.5,220.5C 138.616,223.91 136.95,225.244 133.5,224.5C 133.5,223.167 133.5,221.833 133.5,220.5 Z"/></g>
<g><path style="opacity:1" fill="#202122" d="M 118.5,220.5 C 117.833,220.5 117.167,220.5 116.5,220.5C 115.325,220.719 114.325,220.386 113.5,219.5C 116.167,218.167 118.833,218.167 121.5,219.5C 120.675,220.386 119.675,220.719 118.5,220.5 Z"/></g>
<g><path style="opacity:1" fill="#7d8182" d="M 116.5,210.5 C 115.081,211.451 113.415,211.784 111.5,211.5C 111.5,212.5 111.5,213.5 111.5,214.5C 113.415,214.216 115.081,214.549 116.5,215.5C 114.5,215.5 112.5,215.5 110.5,215.5C 110.5,213.833 110.5,212.167 110.5,210.5C 112.5,210.5 114.5,210.5 116.5,210.5 Z"/></g>
<g><path style="opacity:1" fill="#bfc4c5" d="M 40.5,248.5 C 56.6754,248.17 72.6754,248.504 88.5,249.5C 87.5,249.5 86.5,249.5 85.5,249.5C 85.5,251.167 85.5,252.833 85.5,254.5C 84.7515,253.469 84.0848,252.302 83.5,251C 67.9945,250.831 52.6612,250.331 37.5,249.5C 38.791,249.737 39.791,249.404 40.5,248.5 Z"/></g>
<g><path style="opacity:1" fill="#616566" d="M 121.5,241.5 C 122.167,242.167 122.833,242.833 123.5,243.5C 123.741,246.999 122.908,247.332 121,244.5C 120.505,246.473 120.338,248.473 120.5,250.5C 122.099,250.232 123.432,250.566 124.5,251.5C 122.233,251.146 120.899,251.479 120.5,252.5C 120.5,253.5 120.5,254.5 120.5,255.5C 121.833,255.5 123.167,255.5 124.5,255.5C 122.735,256.461 120.735,256.795 118.5,256.5C 118.616,253.14 118.949,249.807 119.5,246.5C 119.336,243.813 119.503,241.146 120,238.5C 120.232,239.737 120.732,240.737 121.5,241.5 Z"/></g>
<g><path style="opacity:1" fill="#222424" d="M 110.5,250.5 C 112.924,250.192 115.257,250.526 117.5,251.5C 115.955,252.452 114.288,252.785 112.5,252.5C 112.5,253.833 112.5,255.167 112.5,256.5C 117.833,256.833 117.833,257.167 112.5,257.5C 112.799,259.604 112.466,261.604 111.5,263.5C 110.508,259.217 110.174,254.884 110.5,250.5 Z"/></g>
<g><path style="opacity:1" fill="#464948" d="M 167.5,250.5 C 168.586,250.62 169.253,251.287 169.5,252.5C 169.167,253.167 168.833,253.833 168.5,254.5C 167.571,253.311 167.238,251.978 167.5,250.5 Z"/></g>
<g><path style="opacity:1" fill="#eeeff0" d="M 120.5,252.5 C 121.833,252.5 123.167,252.5 124.5,252.5C 124.5,253.5 124.5,254.5 124.5,255.5C 123.167,255.5 121.833,255.5 120.5,255.5C 120.5,254.5 120.5,253.5 120.5,252.5 Z"/></g>
<g><path style="opacity:1" fill="#626665" d="M 162.5,255.5 C 161.596,256.209 161.263,257.209 161.5,258.5C 160.041,258.567 158.708,258.234 157.5,257.5C 157.833,256.167 158.167,254.833 158.5,253.5C 161.051,250.77 162.384,251.437 162.5,255.5 Z"/></g>
<g><path style="opacity:1" fill="#1f2122" d="M 132.5,250.5 C 132.5,251.5 132.5,252.5 132.5,253.5C 133.167,253.5 133.5,253.833 133.5,254.5C 134.268,257.401 135.268,260.234 136.5,263C 136.167,263.167 135.833,263.333 135.5,263.5C 134.841,260.176 132.841,258.843 129.5,259.5C 129.853,261.635 129.02,262.968 127,263.5C 125.012,261.562 123.012,259.562 121,257.5C 120.808,259.577 120.308,261.577 119.5,263.5C 117.978,261.154 117.645,258.821 118.5,256.5C 120.735,256.795 122.735,256.461 124.5,255.5C 124.5,254.5 124.5,253.5 124.5,252.5C 123.167,252.5 121.833,252.5 120.5,252.5C 120.899,251.479 122.233,251.146 124.5,251.5C 127.041,253.44 127.041,255.607 124.5,258C 125.147,259.609 125.98,261.109 127,262.5C 128.551,259.132 129.717,255.632 130.5,252C 130.836,250.97 131.503,250.47 132.5,250.5 Z"/></g>
<g><path style="opacity:1" fill="#b9bfbf" d="M 132.5,253.5 C 132.286,255.144 132.62,256.644 133.5,258C 132.552,258.483 131.552,258.649 130.5,258.5C 130.402,256.447 131.069,254.78 132.5,253.5 Z"/></g>
<g><path style="opacity:1" fill="#202122" d="M 162.5,255.5 C 163.566,257.701 164.233,260.035 164.5,262.5C 164.19,263.738 163.69,263.738 163,262.5C 162.517,261.552 162.351,260.552 162.5,259.5C 161.167,259.5 159.833,259.5 158.5,259.5C 158.688,261.103 158.188,262.437 157,263.5C 156.82,261.512 156.986,259.512 157.5,257.5C 158.708,258.234 160.041,258.567 161.5,258.5C 161.263,257.209 161.596,256.209 162.5,255.5 Z"/></g>
<g><path style="opacity:1" fill="#2b3030" d="M 145.5,253.5 C 144.922,254.547 144.256,254.38 143.5,253C 139.771,251.728 138.104,253.061 138.5,257C 138.43,260.992 140.43,262.492 144.5,261.5C 144.5,260.5 144.5,259.5 144.5,258.5C 140.828,257.955 141.162,257.622 145.5,257.5C 146.575,261.938 144.908,263.938 140.5,263.5C 140.167,263.5 139.833,263.5 139.5,263.5C 136.018,259.76 135.685,255.76 138.5,251.5C 141.523,249.839 143.857,250.505 145.5,253.5 Z"/></g>
<g><path style="opacity:1" fill="#1a1e1e" d="M 103.5,260.5 C 102.432,259.566 101.099,259.232 99.5,259.5C 99.67,260.822 99.3366,261.989 98.5,263C 95.854,263.497 93.1873,263.664 90.5,263.5C 90.5,259.5 90.5,255.5 90.5,251.5C 91.1667,251.5 91.8333,251.5 92.5,251.5C 92.5,254.833 92.5,258.167 92.5,261.5C 94.1439,261.286 95.6439,261.62 97,262.5C 98.208,258.374 99.708,254.374 101.5,250.5C 103.885,254.575 105.052,258.908 105,263.5C 104.768,262.263 104.268,261.263 103.5,260.5 Z"/></g>
<g><path style="opacity:1" fill="#c3c9c9" d="M 100.5,254.5 C 101.586,254.62 102.253,255.287 102.5,256.5C 102.167,257.167 101.833,257.833 101.5,258.5C 100.571,257.311 100.238,255.978 100.5,254.5 Z"/></g>
<g><path style="opacity:1" fill="#d4d9d9" d="M 147.5,250.5 C 147.335,254.182 147.501,257.848 148,261.5C 149.733,263.602 151.733,263.935 154,262.5C 154.499,258.514 154.666,254.514 154.5,250.5C 155.404,251.209 155.737,252.209 155.5,253.5C 156.5,253.5 157.5,253.5 158.5,253.5C 158.167,254.833 157.833,256.167 157.5,257.5C 156.986,259.512 156.82,261.512 157,263.5C 158.188,262.437 158.688,261.103 158.5,259.5C 159.833,259.5 161.167,259.5 162.5,259.5C 162.351,260.552 162.517,261.552 163,262.5C 163.69,263.738 164.19,263.738 164.5,262.5C 165.494,263.999 165.494,265.666 164.5,267.5C 163.85,267.196 163.183,266.863 162.5,266.5C 161.828,267.949 161.161,269.282 160.5,270.5C 159.817,268.824 158.483,268.157 156.5,268.5C 156.815,272.371 156.482,276.038 155.5,279.5C 155.5,275.5 155.5,271.5 155.5,267.5C 155.167,266.167 154.833,266.167 154.5,267.5C 154.5,271.5 154.5,275.5 154.5,279.5C 153.518,276.038 153.185,272.371 153.5,268.5C 151.801,268.527 150.467,269.194 149.5,270.5C 149.616,267.09 147.95,265.756 144.5,266.5C 143.552,265.022 142.219,264.022 140.5,263.5C 144.908,263.938 146.575,261.938 145.5,257.5C 141.162,257.622 140.828,257.955 144.5,258.5C 144.5,259.5 144.5,260.5 144.5,261.5C 140.43,262.492 138.43,260.992 138.5,257C 138.104,253.061 139.771,251.728 143.5,253C 144.256,254.38 144.922,254.547 145.5,253.5C 146.167,252.5 146.833,251.5 147.5,250.5 Z"/></g>
<g><path style="opacity:1" fill="#1b1d1e" d="M 147.5,250.5 C 148.402,253.997 149.069,257.663 149.5,261.5C 150.833,261.5 152.167,261.5 153.5,261.5C 153.185,257.629 153.518,253.962 154.5,250.5C 154.666,254.514 154.499,258.514 154,262.5C 151.733,263.935 149.733,263.602 148,261.5C 147.501,257.848 147.335,254.182 147.5,250.5 Z"/></g>
<g><path style="opacity:1" fill="#272a29" d="M 144.5,266.5 C 147.95,265.756 149.616,267.09 149.5,270.5C 148.735,269.34 147.735,268.34 146.5,267.5C 144.899,268.035 144.399,269.035 145,270.5C 150.516,271.73 151.683,274.563 148.5,279C 144.494,279.987 142.661,278.487 143,274.5C 144.019,275.687 145.186,276.687 146.5,277.5C 149.175,274.99 148.508,273.49 144.5,273C 141.894,270.701 141.894,268.534 144.5,266.5 Z"/></g>
<g><path style="opacity:1" fill="#030505" d="M 155.5,279.5 C 155.167,279.5 154.833,279.5 154.5,279.5C 154.5,275.5 154.5,271.5 154.5,267.5C 154.833,266.167 155.167,266.167 155.5,267.5C 155.5,271.5 155.5,275.5 155.5,279.5 Z"/></g>
<g><path style="opacity:1" fill="#030506" d="M 98.5,266.5 C 100.857,266.337 103.19,266.503 105.5,267C 103.527,267.495 101.527,267.662 99.5,267.5C 99.5,268.833 99.5,270.167 99.5,271.5C 106.167,272.167 106.167,272.833 99.5,273.5C 99.5,274.833 99.5,276.167 99.5,277.5C 100.959,277.567 102.292,277.234 103.5,276.5C 103.611,277.117 103.944,277.617 104.5,278C 102.527,278.495 100.527,278.662 98.5,278.5C 98.5,274.5 98.5,270.5 98.5,266.5 Z"/></g>
<g><path style="opacity:1" fill="#4e5255" d="M 109.5,272.5 C 108.766,273.708 108.433,275.041 108.5,276.5C 110.099,276.232 111.432,276.566 112.5,277.5C 112.5,278.167 112.5,278.833 112.5,279.5C 110.5,279.5 108.5,279.5 106.5,279.5C 106.5,278.167 106.5,276.833 106.5,275.5C 106.183,272.428 106.516,269.428 107.5,266.5C 108.169,268.631 108.835,270.631 109.5,272.5 Z"/></g>
<g><path style="opacity:1" fill="#7f8686" d="M 136.5,266.5 C 136.842,265.662 137.508,265.328 138.5,265.5C 139.5,265.5 140.5,265.5 141.5,265.5C 141.5,270.167 141.5,274.833 141.5,279.5C 140.5,279.5 139.5,279.5 138.5,279.5C 138.815,275.629 138.482,271.962 137.5,268.5C 137.672,267.508 137.338,266.842 136.5,266.5 Z"/></g>
<g><path style="opacity:1" fill="#1b1e1e" d="M 89.5,266.5 C 92.3795,266.033 94.7129,266.866 96.5,269C 96.3613,270.301 95.6946,271.134 94.5,271.5C 96.6044,273.583 96.9377,275.917 95.5,278.5C 93.5,278.833 91.5,279.167 89.5,279.5C 89.5,275.167 89.5,270.833 89.5,266.5 Z"/></g>
<g><path style="opacity:1" fill="#d2d7d7" d="M 94.5,271.5 C 93.1667,271.5 91.8333,271.5 90.5,271.5C 90.5,270.167 90.5,268.833 90.5,267.5C 93.5,267.167 94.8333,268.5 94.5,271.5 Z"/></g>
<g><path style="opacity:1" fill="#7a7f7f" d="M 115.5,266.5 C 114.517,270.298 114.183,274.298 114.5,278.5C 116.5,278.5 118.5,278.5 120.5,278.5C 120.833,278.5 121.167,278.5 121.5,278.5C 118.713,279.477 115.713,279.81 112.5,279.5C 112.5,278.833 112.5,278.167 112.5,277.5C 113.634,275.034 113.801,272.367 113,269.5C 111.961,270.71 110.794,271.71 109.5,272.5C 111.087,269.732 112.92,267.065 115,264.5C 115.464,265.094 115.631,265.761 115.5,266.5 Z"/></g>
<g><path style="opacity:1" fill="#e4eeec" d="M 90.5,272.5 C 93.179,272.525 94.5123,273.858 94.5,276.5C 93.1667,276.5 91.8333,276.5 90.5,276.5C 90.5,275.167 90.5,273.833 90.5,272.5 Z"/></g>
<g><path style="opacity:1" fill="#f3f6f7" d="M 112.5,277.5 C 111.432,276.566 110.099,276.232 108.5,276.5C 108.433,275.041 108.766,273.708 109.5,272.5C 110.794,271.71 111.961,270.71 113,269.5C 113.801,272.367 113.634,275.034 112.5,277.5 Z"/></g>
<g><path style="opacity:1" fill="#1f2222" d="M 129.5,279.5 C 127.824,278.817 127.157,277.483 127.5,275.5C 125.833,275.5 124.167,275.5 122.5,275.5C 122.737,276.791 122.404,277.791 121.5,278.5C 122.167,274.5 122.833,270.5 123.5,266.5C 124.5,266.5 125.5,266.5 126.5,266.5C 127.032,270.961 128.032,275.294 129.5,279.5 Z"/></g>
<g><path style="opacity:1" fill="#c8cece" d="M 124.5,269.5 C 127.459,272.271 127.126,273.271 123.5,272.5C 124.127,271.583 124.461,270.583 124.5,269.5 Z"/></g>
<g><path style="opacity:1" fill="#222625" d="M 164.5,267.5 C 165.189,271.069 166.189,274.569 167.5,278C 167.167,278.5 166.833,279 166.5,279.5C 165.571,278.311 165.238,276.978 165.5,275.5C 164.167,275.5 162.833,275.5 161.5,275.5C 161.883,278.462 160.883,279.462 158.5,278.5C 159.785,275.979 160.452,273.313 160.5,270.5C 161.161,269.282 161.828,267.949 162.5,266.5C 163.183,266.863 163.85,267.196 164.5,267.5 Z"/></g>
<g><path style="opacity:1" fill="#d0d9d7" d="M 162.5,270.5 C 165.3,272.476 164.967,273.309 161.5,273C 162.252,272.329 162.586,271.496 162.5,270.5 Z"/></g>
<g><path style="opacity:1" fill="#4b5052" d="M 97.5,266.5 C 97.8333,266.5 98.1667,266.5 98.5,266.5C 98.5,270.5 98.5,274.5 98.5,278.5C 100.527,278.662 102.527,278.495 104.5,278C 103.944,277.617 103.611,277.117 103.5,276.5C 103.938,275.494 104.604,275.494 105.5,276.5C 105.5,277.5 105.5,278.5 105.5,279.5C 102.5,279.5 99.5,279.5 96.5,279.5C 96.5,279.167 96.5,278.833 96.5,278.5C 97.4834,274.702 97.8168,270.702 97.5,266.5 Z"/></g>
<g><path style="opacity:1" fill="#292e2f" d="M 136.5,266.5 C 137.338,266.842 137.672,267.508 137.5,268.5C 136.671,271.815 135.838,275.148 135,278.5C 134.23,279.598 133.397,279.598 132.5,278.5C 131.881,274.742 130.881,271.075 129.5,267.5C 129.833,267.167 130.167,266.833 130.5,266.5C 131.669,269.198 132.836,271.865 134,274.5C 134.941,271.846 135.774,269.179 136.5,266.5 Z"/></g>
<g><path style="opacity:1" fill="#010304" d="M 115.5,266.5 C 115.5,270.167 115.5,273.833 115.5,277.5C 117.415,277.216 119.081,277.549 120.5,278.5C 118.5,278.5 116.5,278.5 114.5,278.5C 114.183,274.298 114.517,270.298 115.5,266.5 Z"/></g>
<g><path style="opacity:1" fill="#aeb0b3" d="M 89.5,266.5 C 89.5,270.833 89.5,275.167 89.5,279.5C 91.5,279.167 93.5,278.833 95.5,278.5C 95.8333,278.5 96.1667,278.5 96.5,278.5C 96.5,278.833 96.5,279.167 96.5,279.5C 93.0284,281.258 89.3618,281.758 85.5,281C 86.448,280.517 87.448,280.351 88.5,280.5C 88.1805,275.637 88.5139,270.97 89.5,266.5 Z"/></g>
<g><path style="opacity:1" fill="#b2b7b6" d="M 54.5,281.5 C 64.1571,282.417 73.8237,282.584 83.5,282C 79.5872,283.052 75.5872,283.552 71.5,283.5C 64.9593,282.905 58.626,282.571 52.5,282.5C 53.4916,282.672 54.1583,282.338 54.5,281.5 Z"/></g>
</svg>
